{"title":"Mike Will Made It ft. Miley Cyrus, Wiz Khalifa, and Juicy J - 23","uid":8961437,"size":82286731,"categoryP":"video","categoryS":"music_videos","magnet":"?xt=urn:btih:e22e271df7376ee96cd107a0e9bba1e87973143e&amp;dn=Mike+Will+Made+It+ft.+Miley+Cyrus%2C+Wiz+Khalifa%2C+and+Juicy+J+-+23&amp;tr=udp%3A%2F%2Ftracker.openbittorrent.com%3A80&amp;tr=udp%3A%2F%2Fopen.demonii.com%3A1337&amp;tr=udp%3A%2F%2Ftracker.coppersurfer.tk%3A6969&amp;tr=udp%3A%2F%2Fexodus.desync.com%3A6969","seeders":8,"leechers":1,"uploader":"canc232","files":1,"time":1380127107,"description":"Mike Will Made It ft. Miley Cyrus, Wiz Khalifa, and Juicy J - 23 720p x264 AAC E-Subs [GWC].mp4\n\nMike WiLL Made It has produced massive hits for Miley Cyrus (&quot;We Can't Stop&quot;) and Juicy J (&quot;Bandz A Make Her Dance&quot;). How did those artists repay the hip-hop maestro? By going back to high school, of course, and bringing Wiz Khalifa along for the ride!\nIn Mike WiLL's new video for his single &quot;23,&quot; the producer steps in front of the &quot;featuring&quot; tag, and also, into the principal's office to wreak some havoc.\nMiley raps and, naturally, sticks out her tongue.\n\nCOVER : &lt;a href=&quot;\nhttp://s14.postimg.org/h6simz5yp/url.png&quot; rel=&quot;nofollow&quot; target=&quot;_NEW&quot;&gt;\nhttp://s14.postimg.org/h6simz5yp/url.png&lt;/a&gt;\n\n\nTHUMBNAIL IMAGE :\n &lt;a href=&quot;\nhttp://s14.postimg.org/voppuyx9t/Mike_Will_Made_It_ft_Miley_Cyrus_Wiz_Khalifa.jpg&quot; rel=&quot;nofollow&quot; target=&quot;_NEW&quot;&gt;\nhttp://s14.postimg.org/voppuyx9t/Mike_Will_Made_It_ft_Miley_Cyrus_Wiz_Khalifa.jpg&lt;/a&gt;\n\n\n\nMEDIA INFO :\n\nGeneral \nFormat : MPEG-4 \nFile size : 78.5 MiB \nDuration : 5mn 17s \nOverall bit rate mode : Variable \nOverall bit rate : 2 074 Kbps \n\nVideo \nID : 1 \nFormat : AVC \nFormat profile : &lt;a class=&quot;__cf_email__&quot; href=&quot;/cdn-cgi/l/email-protection&quot; data-cfemail=&quot;581539313618146b7669&quot;&gt;[email&amp;#160;protected]&lt;/a&gt;&lt;script cf-hash='f9e31' type=&quot;text/javascript&quot;&gt;\n/* &lt;![CDATA[ */!function(){try{var t=&quot;currentScript&quot;in document?document.currentScript:function(){for(var t=document.getElementsByTagName(&quot;script&quot;),e=t.length;e--;)if(t[e].getAttribute(&quot;cf-hash&quot;))return t[e]}();if(t&amp;&amp;t.previousSibling){var e,r,n,i,c=t.previousSibling,a=c.getAttribute(&quot;data-cfemail&quot;);if(a){for(e=&quot;&quot;,r=parseInt(a.substr(0,2),16),n=2;a.length-n;n+=2)i=parseInt(a.substr(n,2),16)^r,e+=String.fromCharCode(i);e=document.createTextNode(e),c.parentNode.replaceChild(e,c)}}}catch(u){}}();/* ]]&gt; */&lt;/script&gt; \nFormat settings, CABAC : Yes \nFormat settings, ReFrames : 3 frames \nDuration : 5mn 17s \nSource duration : 5mn 17s \nBit rate : 1 979 Kbps \nMaximum bit rate : 3 837 Kbps \nWidth : 1 280 pixels \nHeight : 720 pixels \nDisplay aspect ratio : 16:9 \nFrame rate mode : Constant \nFrame rate : 23.976 fps \nTitle : Mike Will Made It ft. Miley Cyrus, Wiz Khalifa, and Juicy J - 23 720p x264 AAC E-Subs [GWC] \n\nAudio \nID : 2 \nFormat : AAC \nFormat profile : LC \nCodec ID : 40 \nDuration : 5mn 4s \nBit rate mode : Variable \nChannel(s) : 2 channels \nSampling rate : 48.0 KHz \nCompression mode : Lossy \nStream size : 3.50 MiB (4%) \nLanguage : English \n\nText \nID : 3 \nFormat : Timed Text \nCodec ID : tx3g \nDuration : 5mn 11s \nBit rate mode : Variable \nBit rate : 104 bps \nStream size : 3.97 KiB (0%) \nTitle : English Subtitle by [GWC] \nLanguage : English","torrent":{"xt":"urn:btih:e22e271df7376ee96cd107a0e9bba1e87973143e","amp;dn":"Mike+Will+Made+It+ft.+Miley+Cyrus%2C+Wiz+Khalifa%2C+and+Juicy+J+-+23","amp;tr":["udp%3A%2F%2Ftracker.openbittorrent.com%3A80","udp%3A%2F%2Fopen.demonii.com%3A1337","udp%3A%2F%2Ftracker.coppersurfer.tk%3A6969","udp%3A%2F%2Fexodus.desync.com%3A6969"],"infoHash":"e22e271df7376ee96cd107a0e9bba1e87973143e","infoHashBuffer":{"type":"Buffer","data":[226,46,39,29,247,55,110,233,108,209,7,160,233,187,161,232,121,115,20,62]},"announce":[],"urlList":[]}}